<?xml version="1.0" encoding="UTF-8"?>
<svg xmlns="http://www.w3.org/2000/svg" version="1.1" viewBox="0 0 512 340.24">
  <!-- Generator: Adobe Illustrator 29.8.2, SVG Export Plug-In . SVG Version: 2.1.1 Build 3)  -->
  <defs>
    <style>
      .st0 {
        fill: #fff;
      }
    </style>
  </defs>
  <g id="Layer_1" image-rendering="optimizeQuality" shape-rendering="geometricPrecision" text-rendering="geometricPrecision">
    <path class="st0" d="M367.46,0c-41.98,0-74.8,31.62-104.51,71.79C222.12,19.81,187.98,0,147.12,0,63.82,0,0,108.41,0,223.15c0,71.8,34.74,117.09,92.92,117.09,41.88,0,72-19.74,125.54-113.33,0,0,22.32-39.41,37.67-66.56,5.76,9.31,11.42,18.67,17,28.08l25.11,42.24c48.91,81.84,76.16,109.58,125.54,109.58,56.68,0,88.23-45.91,88.23-119.2C512,100.9,446.74,0,367.46,0ZM177.63,201.56c-43.41,68.05-58.43,83.3-82.6,83.3s-39.65-21.84-39.65-60.77c0-83.3,41.53-168.48,91.04-168.48,26.81,0,49.22,15.48,83.54,64.62-32.59,49.99-52.33,81.33-52.33,81.33h0ZM341.46,192.99l-30.02-50.07c-8.12-13.21-15.93-25.37-23.42-36.48,27.06-41.76,49.37-62.57,75.92-62.57,55.14,0,99.26,81.19,99.26,180.91,0,38.01-12.45,60.07-38.25,60.07s-36.54-16.33-83.48-91.87Z"/>
  </g>
</svg>