<?xml version="1.0" encoding="UTF-8"?>
<svg xmlns="http://www.w3.org/2000/svg" version="1.1" viewBox="0 0 512 512">
  <!-- Generator: Adobe Illustrator 29.8.2, SVG Export Plug-In . SVG Version: 2.1.1 Build 3)  -->
  <defs>
    <style>
      .st0 {
        fill: #fff;
        fill-rule: evenodd;
      }
    </style>
  </defs>
  <g id="Layer_1" image-rendering="optimizeQuality" shape-rendering="geometricPrecision" text-rendering="geometricPrecision">
    <path class="st0" d="M145.3,0h221.39c79.92,0,145.3,65.39,145.3,145.3v221.39c0,79.92-65.39,145.3-145.3,145.3h-221.39C65.39,512,0,446.61,0,366.7v-221.39C0,65.39,65.39,0,145.3,0ZM160.94,203.05h52.95l43.79-44.12c3.25-3.24,8.5-3.27,11.74-.03,1.65,1.6,2.46,3.73,2.46,5.88h.03v182.4c0,4.59-3.73,8.34-8.35,8.34-2.24,0-4.39-.91-5.96-2.51l-43.29-35.17h-53.38c-7.3,0-13.95-2.99-18.74-7.79-4.82-4.79-7.81-11.44-7.81-18.74v-61.72c0-7.3,2.99-13.95,7.79-18.74,4.99-4.99,11.7-7.81,18.77-7.81h0ZM366.29,218.75c4.55-4.43,11.83-4.32,16.26.23s4.33,11.83-.23,16.25l-21.6,21,21,21.6c4.42,4.55,4.33,11.83-.23,16.25-4.55,4.43-11.83,4.33-16.26-.22l-21-21.6-21.6,21c-4.55,4.43-11.83,4.33-16.26-.23-4.42-4.55-4.33-11.83.23-16.26l21.6-21-21-21.6c-4.43-4.55-4.33-11.83.23-16.26,4.55-4.43,11.83-4.32,16.26.23l21,21.6,21.59-21h0Z"/>
  </g>
</svg>