<?xml version="1.0" encoding="UTF-8"?>
<svg xmlns="http://www.w3.org/2000/svg" version="1.1" viewBox="0 0 64 64">
  <!-- Generator: Adobe Illustrator 29.8.2, SVG Export Plug-In . SVG Version: 2.1.1 Build 3)  -->
  <defs>
    <style>
      .st0 {
        fill: #fff;
        fill-rule: evenodd;
      }
    </style>
  </defs>
  <g id="Layer_1" image-rendering="optimizeQuality" shape-rendering="geometricPrecision" text-rendering="geometricPrecision">
    <path class="st0" d="M63.35,19.2s-.62-4.41-2.55-6.35c-2.44-2.55-5.17-2.56-6.41-2.71-8.95-.65-22.39-.65-22.39-.65h-.02s-13.44,0-22.39.65c-1.25.15-3.98.16-6.41,2.71-1.92,1.94-2.54,6.35-2.54,6.35C.64,19.2,0,24.38,0,29.57v4.85C0,39.6.64,44.78.64,44.78c0,0,.62,4.41,2.54,6.35,2.44,2.55,5.64,2.46,7.07,2.74,5.12.49,21.76.64,21.76.64,0,0,13.45-.02,22.4-.66,1.25-.15,3.98-.16,6.41-2.71,1.92-1.94,2.55-6.35,2.55-6.35,0,0,.64-5.18.64-10.36v-4.85c-.01-5.18-.65-10.36-.65-10.36h0ZM25.37,40.3v-17.99l17.29,9.02s-17.29,8.96-17.29,8.96Z"/>
  </g>
</svg>